<?xml version="1.0" encoding="UTF-8" standalone="no"?>
<svg width="100px" height="100px" viewBox="0 0 100 100" version="1.1" xmlns="http://www.w3.org/2000/svg" xmlns:xlink="http://www.w3.org/1999/xlink" xmlns:sketch="http://www.bohemiancoding.com/sketch/ns">
    <!-- Generator: Sketch 3.1.1 (8761) - http://www.bohemiancoding.com/sketch -->
    <title>language-link</title>
    <desc>Created with Sketch.</desc>
    <defs></defs>
    <g id="Page-1" stroke="none" stroke-width="1" fill="none" fill-rule="evenodd" sketch:type="MSPage">
        <path d="M50,100 C77.6142375,100 100,77.6142375 100,50 C100,22.3857625 77.6142375,0 50,0 C22.3857625,0 0,22.3857625 0,50 C0,77.6142375 22.3857625,100 50,100 Z" id="circle" fill="#F6A623" sketch:type="MSShapeGroup"></path>
        <path d="M14.9121484,70.8564153 L14.4214092,24.2361929 C14.4214092,24.2361929 14.4214092,22.2732361 26.1991496,22.2732361 C37.97689,22.2732361 58.587937,31.59728 68.4027194,31.5972806 C78.2175018,31.5972813 85.5785908,26.6898888 85.5785908,26.6898888 L85.5785908,73.3101112 C85.5785908,73.3101112 79.1989827,77.7267651 68.4027194,77.7267639 C57.6064561,77.7267626 37.4861502,69.3841965 26.1991493,69.3841965 C14.9121484,69.3841965 14.9121484,70.8564153 14.9121484,70.8564153 Z" id="flag" fill="#FFFFFF" sketch:type="MSShapeGroup"></path>
        <g id="link" sketch:type="MSLayerGroup" transform="translate(28.145400, 40.233815)" fill="#4990E2">
            <path d="M6.55729059,0.457731529 C7.55258549,0.129080291 8.60433811,-0.0146474089 9.65153769,3.95039904e-15 L18.2130772,3.95039904e-15 C18.7594422,0.00183092612 19.3076284,-0.0128164828 19.8530828,0.0411958376 C22.1569219,0.240766784 24.3587728,1.33840699 25.9368571,3.03292911 C27.3656015,4.55717511 28.3590752,6.57119384 28.4109799,8.68865989 C28.4474042,9.26906347 28.159652,9.8284114 27.7316661,10.2037513 C27.0514417,10.8061259 26.1080514,11.0432309 25.2174765,10.9837258 C24.616475,10.9562619 24.0009038,10.7905631 23.5383147,10.3886748 C22.9965028,9.94009789 22.7233203,9.26540162 22.5138804,8.61176099 C22.0276155,7.15342834 20.6972167,5.92670784 19.1245962,5.86628728 C16.269839,5.85255534 13.4150819,5.86354089 10.5603248,5.8607945 C9.80816233,5.86811821 9.03050281,5.79488116 8.30656919,6.05304174 C7.03627057,6.47232383 6.04826053,7.64960932 5.87251312,8.98435446 C5.71953092,9.93918243 5.97723308,10.9480227 6.5582012,11.7160962 C7.23114075,12.626982 8.34117231,13.1890763 9.47032664,13.1808371 C10.6532069,13.1808371 11.8360871,13.1854144 13.0180567,13.1771753 C13.8084647,15.550971 15.4147778,17.619002 17.4554511,19.0407162 C14.7627823,19.044378 12.0701134,19.0452935 9.37744459,19.0398007 C7.07542673,19.0269842 4.79344225,18.1279995 3.09880015,16.5625577 C1.42237021,15.0392271 0.315981091,12.8933817 0.0655637998,10.6340189 C-0.146607941,8.86076695 0.1529822,7.0280099 0.922446239,5.41771038 C2.01881867,3.08144866 4.10775418,1.24136791 6.55729059,0.457731529 L6.55729059,0.457731529 Z" id="Shape" sketch:type="MSShapeGroup"></path>
            <path d="M25.5616864,0.00549277835 C28.4847392,-0.00640824141 31.4087025,0.00183092612 34.3317553,0.00183092612 C36.6538065,0.0119010198 38.9558244,0.929195005 40.6550195,2.52118526 C42.2922933,4.02620653 43.3750066,6.1308561 43.6354406,8.34719217 C43.8685563,10.1891038 43.5452904,12.0987598 42.718458,13.7594098 C42.0874064,15.0520436 41.1449268,16.183556 40.0148619,17.0651469 C38.4021745,18.3239086 36.3742498,19.0214914 34.3335765,19.0434625 C31.5389195,19.0407162 28.7442626,19.0452935 25.9496056,19.0416316 C24.6155644,19.0315615 23.2624004,19.119446 21.9502138,18.8164277 C19.506141,18.2845437 17.3179492,16.7300874 15.9620534,14.6236069 C15.1224725,13.3291421 14.5761075,11.808558 14.5706439,10.2531863 C14.5606272,9.53820961 15.0350541,8.91294834 15.6205753,8.55408682 C16.4938487,8.02311825 17.5911317,7.92333277 18.5691251,8.18698614 C19.1455401,8.34444578 19.6390899,8.7380949 19.9532497,9.24526143 C20.3056552,9.76615991 20.4030903,10.4033222 20.6881107,10.9580928 C21.1598058,11.9229909 22.0048503,12.7267674 23.0411226,13.036194 C23.6603363,13.2284412 24.3132424,13.1753443 24.9506683,13.182668 C28.0485578,13.1790062 31.1464473,13.182668 34.2443369,13.1808371 C35.4590884,13.1881608 36.6474323,12.5336047 37.2976066,11.5037088 C37.9350324,10.5278252 38.0588752,9.2361068 37.6163195,8.15677585 C37.1027364,6.82935442 35.7568573,5.8781883 34.3372189,5.86354089 C32.8784244,5.8534708 31.4205404,5.86537182 29.9617459,5.85896358 C29.2560244,3.74973669 27.9083241,1.87578381 26.1799895,0.4906882 C25.9778345,0.32315846 25.7520036,0.187669927 25.5616864,0.00549277835 L25.5616864,0.00549277835 Z" id="Shape" sketch:type="MSShapeGroup"></path>
        </g>
    </g>
</svg>