<?xml version="1.0" encoding="UTF-8"?>
<svg width="100px" height="100px" viewBox="0 0 100 100" version="1.1" xmlns="http://www.w3.org/2000/svg" xmlns:xlink="http://www.w3.org/1999/xlink">
    <!-- Generator: Sketch 47.1 (45422) - http://www.bohemiancoding.com/sketch -->
    <title>Site Switcher</title>
    <desc>Created with Sketch.</desc>
    <defs></defs>
    <g id="Page-1" stroke="none" stroke-width="1" fill="none" fill-rule="evenodd">
        <circle id="circle" fill="#D13900" fill-rule="nonzero" cx="50" cy="50" r="50"></circle>
        <g id="icon">
            <g id="Right-Arrow" transform="translate(24.000000, 51.000000)" stroke="#FFFFFF" stroke-width="6" stroke-linecap="round" stroke-dasharray="1">
                <path d="M0,12 L47,12" id="straight" transform="translate(23.500000, 12.000000) scale(-1, -1) translate(-23.500000, -12.000000) "></path>
                <path d="M41,12 L52.1722866,24" id="diagonal-2" transform="translate(46.586143, 18.000000) scale(1, -1) translate(-46.586143, -18.000000) "></path>
                <path d="M41,0 L52.1722866,12" id="diagonal-1"></path>
            </g>
            <g id="Left-Arrow" transform="translate(50.000000, 37.000000) scale(-1, 1) translate(-50.000000, -37.000000) translate(24.000000, 25.000000)" stroke="#FFFFFF" stroke-width="6" stroke-linecap="round" stroke-dasharray="1">
                <path d="M0,12 L47,12" id="straight" transform="translate(23.500000, 12.000000) scale(-1, -1) translate(-23.500000, -12.000000) "></path>
                <path d="M41,12 L52,24" id="diagonal-2" transform="translate(46.500000, 18.000000) scale(1, -1) translate(-46.500000, -18.000000) "></path>
                <path d="M41,0 L52,12" id="diagonal-1"></path>
            </g>
        </g>
    </g>
</svg>